<svg version="1.0" xmlns="http://www.w3.org/2000/svg" width="933.333" height="933.333" viewBox="0 0 700 700"><path d="M60.7 52.8c-.2.4-.3 134.3-.3 297.7l.1 297h71.8V447c0-110.3-.3-213.6-.7-229.5-.6-26.6-1.5-64.7-2-83.8-.1-4.2.1-7.4.4-7 .4.5 2.8 8.2 5.5 17.3 4.2 14.8 12.5 40.6 26.5 83 4 12.1 31 84 34 90.5 1.3 2.8 19 49.4 19 50 0 .3.9 2.4 1.9 4.8 1.1 2.3 11.9 30.3 24.1 62.2 12.2 31.9 24.1 62.9 26.5 69 2.3 6 5 13.2 6 16 1 2.7 2.1 5.4 2.5 6 .4.5 1.7 3.9 2.9 7.5s2.6 7.4 3.1 8.5c1.9 4.3 11 28.1 11 28.8 0 .4.9 2.6 1.9 5 1.1 2.3 6.7 16.6 12.4 31.7 5.8 15.1 11.5 30.2 12.8 33.5 1.3 3.3 2.7 6.3 3.3 6.7 1.5 1 56.6.7 56.6-.4 0-.6.6-2.4 1.4-4.1.8-1.8 4.7-11.8 8.6-22.2 3.9-10.5 8.9-23.5 11-29 2.1-5.5 4.5-11.8 5.3-14 2-5.6 10.6-28.5 11.9-31.5.5-1.4 3-7.9 5.4-14.5 2.5-6.6 5.1-13.4 5.9-15 .7-1.7 2.5-6.2 3.8-10 1.4-3.9 6.6-17.8 11.6-31 5.1-13.2 13.8-36.4 19.5-51.5 5.7-15.1 10.9-28.6 11.5-30 .6-1.4 7.4-19.4 15.1-40 7.8-20.6 15.2-40.2 16.5-43.5 1.2-3.3 8.2-21.8 15.5-41 7.2-19.3 13.5-35.7 13.9-36.5 2.3-4.5 22.9-69.6 27.1-85.5 4.4-16.9 7.2-24.6 6.4-17.8-.2 1.5-.6 9.1-1 16.8-.3 7.7-.9 17.4-1.1 21.5-.3 4.1-.7 113.8-1 243.6l-.4 236.2h72.7l-.1-297.6V52.5H535.8L531.5 64c-2.3 6.3-14.7 39.2-27.5 73-12.7 33.8-24.4 64.9-26 69-1.5 4.1-12.1 32.2-23.5 62.5-25.5 67.7-47.8 126.9-61.9 164.5-5.8 15.7-11.1 29.4-11.6 30.5-5 10.9-25.1 76-28.5 92.3-.8 3.9-1.1 3.8-1.8-.3-1-6.8-16.7-62.9-22.6-81-2.7-8.4-34.2-91.2-58.6-154-7.4-19-16-41.5-17.2-45-.7-2.2-1.8-4.9-2.3-6-.5-1.1-3.2-8.1-6-15.5s-5.5-14.4-6-15.5c-.5-1.1-5-12.8-10-26s-9.5-24.9-9.9-26c-.5-1.1-4.2-10.6-8.1-21-10-26.4-11.7-30.8-15.5-40.5-1.9-4.7-4.3-11.2-5.5-14.5-1.2-3.3-3-7.8-4-10-.9-2.2-2.1-5.1-2.5-6.5-1.3-4.2-13.4-35.4-14.5-37.2-.5-1-1-2.4-1-3.2 0-1.3-7.3-1.5-53-1.5-29.1.1-53.1.4-53.3.7z"/></svg>