<?xml version="1.0" standalone="no"?>
<!DOCTYPE svg PUBLIC "-//W3C//DTD SVG 20010904//EN"
 "http://www.w3.org/TR/2001/REC-SVG-20010904/DTD/svg10.dtd">
<svg version="1.0" xmlns="http://www.w3.org/2000/svg"
 width="700.000000pt" height="700.000000pt" viewBox="0 0 700.000000 700.000000"
 preserveAspectRatio="xMidYMid meet">
<metadata>
Created by potrace 1.11, written by Peter Selinger 2001-2013
</metadata>
<g transform="translate(0.000000,700.000000) scale(0.100000,-0.100000)"
fill="#000000" stroke="none">
<path d="M607 6472 c-2 -4 -3 -1343 -3 -2977 l1 -2970 359 0 359 0 0 2005 c0
1103 -3 2136 -7 2295 -6 266 -15 647 -20 838 -1 42 1 74 4 70 4 -5 28 -82 55
-173 42 -148 125 -406 265 -830 40 -121 310 -840 340 -905 13 -28 190 -494
190 -500 0 -3 9 -24 19 -48 11 -23 119 -303 241 -622 122 -319 241 -629 265
-690 23 -60 50 -132 60 -160 10 -27 21 -54 25 -60 4 -5 17 -39 29 -75 12 -36
26 -74 31 -85 19 -43 110 -281 110 -288 0 -4 9 -26 19 -50 11 -23 67 -166 124
-317 58 -151 115 -302 128 -335 13 -33 27 -63 33 -67 15 -10 566 -7 566 4 0 6
6 24 14 41 8 18 47 118 86 222 39 105 89 235 110 290 21 55 45 118 53 140 20
56 106 285 119 315 5 14 30 79 54 145 25 66 51 134 59 150 7 17 25 62 38 100
14 39 66 178 116 310 51 132 138 364 195 515 57 151 109 286 115 300 6 14 74
194 151 400 78 206 152 402 165 435 12 33 82 218 155 410 72 193 135 357 139
365 23 45 229 696 271 855 44 169 72 246 64 178 -2 -15 -6 -91 -10 -168 -3
-77 -9 -174 -11 -215 -3 -41 -7 -1138 -10 -2436 l-4 -2362 363 0 364 0 -1
2976 0 2977 -519 0 -518 0 -43 -115 c-23 -63 -147 -392 -275 -730 -127 -338
-244 -649 -260 -690 -15 -41 -121 -322 -235 -625 -255 -677 -478 -1269 -619
-1645 -58 -157 -111 -294 -116 -305 -50 -109 -251 -760 -285 -923 -8 -39 -11
-38 -18 3 -10 68 -167 629 -226 810 -27 84 -342 912 -586 1540 -74 190 -160
415 -172 450 -7 22 -18 49 -23 60 -5 11 -32 81 -60 155 -28 74 -55 144 -60
155 -5 11 -50 128 -100 260 -50 132 -95 249 -99 260 -5 11 -42 106 -81 210
-100 264 -117 308 -155 405 -19 47 -43 112 -55 145 -12 33 -30 78 -40 100 -9
22 -21 51 -25 65 -13 42 -134 354 -145 372 -5 10 -10 24 -10 32 0 13 -73 15
-530 15 -291 -1 -531 -4 -533 -7z"/>
</g>
</svg>
